<svg xmlns="http://www.w3.org/2000/svg" xmlns:xlink="http://www.w3.org/1999/xlink" width="500" zoomAndPan="magnify" viewBox="0 0 375 374.999991" height="500" preserveAspectRatio="xMidYMid meet" version="1.0"><defs><g/><clipPath id="id1"><path d="M 190 41.992188 L 199 41.992188 L 199 124 L 190 124 Z M 190 41.992188 " clip-rule="nonzero"/></clipPath></defs><path fill="#ffffff" d="M 41.03125 162.035156 C 42.558594 159.945312 45.5 159.496094 47.582031 161.027344 C 49.667969 162.554688 50.125 165.496094 48.59375 167.574219 C 47.0625 169.667969 44.128906 170.121094 42.046875 168.585938 C 42.5625 168.972656 43.078125 169.351562 42.046875 168.585938 C 41.664062 168.316406 41.492188 168.1875 41.457031 168.15625 C 41.523438 168.207031 41.777344 168.394531 42.039062 168.582031 C 39.953125 167.054688 39.503906 164.117188 41.03125 162.035156 Z M 51.242188 203.464844 C 48.652344 203.472656 46.550781 201.367188 46.550781 198.78125 C 46.546875 196.195312 48.648438 194.09375 51.234375 194.09375 C 53.820312 194.085938 55.921875 196.183594 55.921875 198.78125 C 55.929688 201.359375 53.828125 203.464844 51.242188 203.464844 Z M 41.191406 169.75 C 43.488281 171.429688 46.570312 171.269531 48.675781 169.554688 L 57.855469 176.15625 L 104.929688 176.132812 L 92.871094 197.3125 L 57.183594 197.332031 C 56.53125 194.652344 54.117188 192.652344 51.234375 192.65625 C 47.855469 192.652344 45.105469 195.402344 45.105469 198.78125 C 45.113281 202.164062 47.863281 204.90625 51.242188 204.90625 C 54.121094 204.898438 56.539062 202.894531 57.1875 200.214844 L 94.550781 200.191406 L 108.246094 176.125 L 135.1875 176.105469 L 135.1875 171.710938 L 110.410156 154.496094 L 84.644531 154.511719 C 84.011719 152.222656 81.921875 150.542969 79.433594 150.542969 C 76.449219 150.542969 74.027344 152.972656 74.03125 155.960938 C 74.035156 158.945312 76.453125 161.367188 79.4375 161.363281 C 81.925781 161.363281 84.019531 159.683594 84.644531 157.390625 L 109.511719 157.375 L 132.332031 173.230469 L 58.792969 173.285156 L 50.414062 167.265625 C 51.542969 164.691406 50.789062 161.59375 48.433594 159.859375 C 45.707031 157.867188 41.875 158.464844 39.875 161.183594 C 37.878906 163.90625 38.464844 167.753906 41.191406 169.75 " fill-opacity="1" fill-rule="nonzero"/><path fill="#ffffff" d="M 337.039062 168.582031 C 337.300781 168.394531 337.554688 168.207031 337.621094 168.15625 C 337.582031 168.1875 337.410156 168.316406 337.035156 168.585938 C 336 169.351562 336.515625 168.972656 337.035156 168.585938 C 334.945312 170.121094 332.011719 169.667969 330.480469 167.574219 C 328.957031 165.496094 329.40625 162.554688 331.492188 161.027344 C 333.578125 159.496094 336.519531 159.945312 338.042969 162.035156 C 339.574219 164.117188 339.121094 167.054688 337.039062 168.582031 Z M 323.15625 198.78125 C 323.15625 196.183594 325.257812 194.085938 327.84375 194.09375 C 330.429688 194.09375 332.53125 196.195312 332.527344 198.78125 C 332.527344 201.367188 330.421875 203.472656 327.835938 203.464844 C 325.25 203.464844 323.152344 201.359375 323.15625 198.78125 Z M 339.203125 161.183594 C 337.207031 158.464844 333.367188 157.867188 330.648438 159.859375 C 328.285156 161.59375 327.53125 164.691406 328.660156 167.265625 L 320.28125 173.285156 L 246.746094 173.230469 L 269.566406 157.375 L 294.429688 157.390625 C 295.058594 159.683594 297.152344 161.363281 299.636719 161.363281 C 302.621094 161.367188 305.042969 158.945312 305.042969 155.960938 C 305.046875 152.972656 302.628906 150.542969 299.644531 150.542969 C 297.15625 150.542969 295.066406 152.222656 294.429688 154.511719 L 268.667969 154.496094 L 243.890625 171.710938 L 243.890625 176.105469 L 270.828125 176.125 L 284.53125 200.191406 L 321.890625 200.214844 C 322.535156 202.894531 324.953125 204.898438 327.835938 204.90625 C 331.21875 204.90625 333.960938 202.164062 333.96875 198.78125 C 333.96875 195.402344 331.222656 192.652344 327.84375 192.65625 C 324.964844 192.652344 322.546875 194.652344 321.894531 197.332031 L 286.203125 197.3125 L 274.148438 176.132812 L 321.21875 176.15625 L 330.402344 169.554688 C 332.511719 171.269531 335.589844 171.429688 337.886719 169.75 C 340.609375 167.753906 341.199219 163.90625 339.203125 161.183594 " fill-opacity="1" fill-rule="nonzero"/><path fill="#ffffff" d="M 182.964844 58.445312 L 183.214844 122.21875 C 183.972656 122.210938 184.730469 122.21875 185.488281 122.238281 L 185.226562 58.417969 C 187.015625 57.902344 188.324219 56.238281 188.304688 54.277344 C 188.273438 51.929688 186.347656 50.046875 183.992188 50.070312 C 181.648438 50.097656 179.757812 52.027344 179.785156 54.382812 C 179.808594 56.339844 181.15625 57.96875 182.964844 58.445312 " fill-opacity="1" fill-rule="nonzero"/><path fill="#ffffff" d="M 156.203125 104.078125 C 157.597656 105.457031 159.695312 105.679688 161.324219 104.753906 L 164.226562 107.648438 L 163.957031 127.71875 C 164.660156 127.089844 165.417969 126.527344 166.238281 126.023438 L 166.480469 106.695312 L 162.914062 103.144531 C 163.832031 101.515625 163.601562 99.414062 162.210938 98.03125 C 160.542969 96.371094 157.84375 96.382812 156.191406 98.046875 C 154.527344 99.71875 154.535156 102.421875 156.203125 104.078125 " fill-opacity="1" fill-rule="nonzero"/><path fill="#ffffff" d="M 174.230469 73.3125 C 176.269531 73.285156 177.945312 74.925781 177.96875 76.960938 C 177.992188 78.996094 176.355469 80.675781 174.320312 80.699219 C 172.28125 80.722656 170.609375 79.085938 170.585938 77.046875 C 170.5625 75.007812 172.191406 73.332031 174.230469 73.3125 Z M 173.191406 81.707031 L 173.210938 123.277344 C 173.953125 123.101562 174.707031 122.953125 175.472656 122.824219 L 175.460938 81.675781 C 177.574219 81.140625 179.125 79.21875 179.101562 76.945312 C 179.070312 74.289062 176.878906 72.144531 174.21875 72.179688 C 171.558594 72.207031 169.417969 74.402344 169.449219 77.0625 C 169.480469 79.332031 171.078125 81.21875 173.191406 81.707031 " fill-opacity="1" fill-rule="nonzero"/><g clip-path="url(#id1)"><path fill="#ffffff" d="M 193.636719 50.339844 L 193.996094 122.882812 C 194.753906 122.96875 195.511719 123.066406 196.257812 123.171875 L 195.90625 50.316406 C 197.699219 49.796875 199.007812 48.136719 198.984375 46.171875 C 198.960938 43.820312 197.03125 41.933594 194.671875 41.960938 C 192.320312 41.988281 190.433594 43.921875 190.460938 46.277344 C 190.480469 48.238281 191.828125 49.863281 193.636719 50.339844 " fill-opacity="1" fill-rule="nonzero"/></g><path fill="#ffffff" d="M 213.34375 126.339844 C 214.136719 126.511719 214.886719 126.675781 215.601562 126.828125 L 215.824219 102.410156 L 218.664062 99.449219 C 220.308594 100.34375 222.402344 100.066406 223.757812 98.65625 C 225.390625 96.953125 225.332031 94.257812 223.632812 92.625 C 221.941406 91.003906 219.242188 91.058594 217.617188 92.753906 C 216.257812 94.167969 216.078125 96.277344 217.027344 97.878906 L 213.550781 101.511719 L 213.34375 126.339844 " fill-opacity="1" fill-rule="nonzero"/><path fill="#ffffff" d="M 204.898438 58.082031 C 206.933594 58.058594 208.609375 59.695312 208.628906 61.726562 C 208.65625 63.769531 207.023438 65.445312 204.984375 65.46875 C 202.945312 65.496094 201.273438 63.855469 201.25 61.824219 C 201.226562 59.785156 202.863281 58.105469 204.898438 58.082031 Z M 203.867188 66.476562 L 204.039062 124.4375 C 204.808594 124.578125 205.566406 124.726562 206.308594 124.871094 L 206.125 66.449219 C 208.238281 65.914062 209.792969 63.988281 209.765625 61.722656 C 209.734375 59.058594 207.542969 56.917969 204.882812 56.945312 C 202.226562 56.980469 200.082031 59.171875 200.117188 61.828125 C 200.144531 64.105469 201.742188 65.984375 203.867188 66.476562 " fill-opacity="1" fill-rule="nonzero"/><path fill="#ffffff" d="M 302.855469 227.699219 L 242.613281 196.925781 C 242.253906 197.632812 241.878906 198.34375 241.492188 199.050781 L 301.777344 229.847656 C 301.394531 231.792969 302.324219 233.832031 304.183594 234.765625 C 306.410156 235.882812 309.125 234.980469 310.246094 232.746094 C 311.363281 230.519531 310.460938 227.800781 308.230469 226.679688 C 306.375 225.75 304.183594 226.226562 302.855469 227.699219 " fill-opacity="1" fill-rule="nonzero"/><path fill="#ffffff" d="M 293.085938 212.238281 C 292.117188 214.164062 289.761719 214.953125 287.828125 213.980469 C 285.902344 213.019531 285.113281 210.65625 286.082031 208.722656 C 287.050781 206.789062 289.40625 206.011719 291.335938 206.976562 C 293.277344 207.949219 294.058594 210.300781 293.085938 212.238281 Z M 285.679688 207.171875 L 246.492188 186.964844 C 246.289062 187.75 246.0625 188.53125 245.808594 189.324219 L 284.609375 209.324219 C 284.082031 211.574219 285.140625 213.972656 287.292969 215.058594 C 289.816406 216.324219 292.898438 215.296875 294.164062 212.773438 C 295.425781 210.246094 294.40625 207.160156 291.878906 205.894531 C 289.722656 204.824219 287.167969 205.410156 285.679688 207.171875 " fill-opacity="1" fill-rule="nonzero"/><path fill="#ffffff" d="M 99.59375 261.308594 L 153.074219 218.582031 C 152.570312 217.953125 152.070312 217.3125 151.578125 216.65625 L 98.0625 259.421875 C 96.433594 258.253906 94.164062 258.257812 92.523438 259.585938 C 90.570312 261.179688 90.273438 264.054688 91.859375 266.023438 C 93.445312 267.980469 96.324219 268.28125 98.292969 266.691406 C 99.921875 265.363281 100.394531 263.148438 99.59375 261.308594 " fill-opacity="1" fill-rule="nonzero"/><path fill="#ffffff" d="M 155.816406 253.421875 C 156.050781 251.328125 154.835938 249.414062 152.976562 248.660156 L 153.476562 244.285156 L 170.539062 231.136719 C 169.542969 230.960938 168.5625 230.695312 167.597656 230.339844 L 151.167969 243.019531 L 150.558594 248.390625 C 148.582031 248.703125 146.964844 250.300781 146.730469 252.386719 C 146.445312 254.902344 148.25 257.167969 150.757812 257.449219 C 153.269531 257.730469 155.53125 255.925781 155.816406 253.421875 " fill-opacity="1" fill-rule="nonzero"/><path fill="#ffffff" d="M 117.917969 258.75 C 116.542969 257.046875 116.800781 254.542969 118.5 253.167969 C 120.195312 251.792969 122.703125 252.050781 124.074219 253.746094 C 125.453125 255.449219 125.191406 257.949219 123.492188 259.328125 C 121.789062 260.707031 119.296875 260.449219 117.917969 258.75 Z M 125.671875 254.027344 L 160.636719 226.304688 C 159.996094 225.800781 159.367188 225.261719 158.746094 224.695312 L 124.136719 252.140625 C 122.277344 250.71875 119.625 250.691406 117.734375 252.222656 C 115.515625 254.023438 115.175781 257.296875 116.976562 259.515625 C 118.777344 261.734375 122.042969 262.074219 124.261719 260.277344 C 126.152344 258.734375 126.675781 256.132812 125.671875 254.027344 " fill-opacity="1" fill-rule="nonzero"/><path fill="#ffffff" d="M 85.65625 257.726562 L 146.445312 209.070312 C 146.019531 208.371094 145.59375 207.671875 145.179688 206.96875 L 84.125 255.828125 C 82.488281 254.664062 80.226562 254.671875 78.589844 256 C 76.625 257.589844 76.324219 260.46875 77.921875 262.4375 C 79.511719 264.394531 82.390625 264.695312 84.355469 263.105469 C 85.988281 261.78125 86.460938 259.5625 85.65625 257.726562 " fill-opacity="1" fill-rule="nonzero"/><path fill="#ffffff" d="M 136.464844 190.472656 C 136.082031 189.691406 135.71875 188.949219 135.367188 188.25 L 114.675781 204.335938 L 110.289062 203.917969 C 109.945312 201.9375 108.324219 200.359375 106.226562 200.160156 C 103.710938 199.917969 101.480469 201.765625 101.238281 204.28125 C 101.003906 206.792969 102.84375 209.023438 105.359375 209.261719 C 107.453125 209.464844 109.347656 208.210938 110.066406 206.339844 L 115.433594 206.847656 L 136.464844 190.472656 " fill-opacity="1" fill-rule="nonzero"/><path fill="#ffffff" d="M 84.664062 243.082031 C 83.285156 241.382812 83.546875 238.882812 85.242188 237.507812 C 86.945312 236.125 89.441406 236.386719 90.820312 238.085938 C 92.199219 239.785156 91.9375 242.285156 90.246094 243.660156 C 88.542969 245.039062 86.042969 244.78125 84.664062 243.082031 Z M 92.417969 238.355469 L 141.066406 199.574219 C 140.667969 198.832031 140.285156 198.097656 139.914062 197.375 L 90.890625 236.46875 C 89.027344 235.050781 86.371094 235.019531 84.484375 236.5625 C 82.261719 238.359375 81.925781 241.632812 83.71875 243.851562 C 85.519531 246.066406 88.789062 246.410156 91 244.609375 C 92.898438 243.074219 93.417969 240.46875 92.417969 238.355469 " fill-opacity="1" fill-rule="nonzero"/><path fill="#ffffff" d="M 184.582031 296.199219 C 186.621094 295.277344 189.023438 296.191406 189.941406 298.226562 C 190.859375 300.265625 189.949219 302.671875 187.910156 303.589844 C 185.875 304.507812 183.476562 303.59375 182.558594 301.554688 C 181.632812 299.515625 182.546875 297.117188 184.582031 296.199219 Z M 196.351562 333.570312 C 197.070312 336.050781 199.664062 337.476562 202.140625 336.761719 C 204.617188 336.042969 206.046875 333.460938 205.332031 330.980469 C 204.734375 328.910156 202.835938 327.574219 200.785156 327.601562 L 196.136719 311.523438 L 210.21875 294.089844 L 201.136719 273.058594 L 216.554688 253.234375 L 209.75 232.492188 L 178.574219 232.476562 L 163.34375 252.070312 L 182.996094 295.722656 C 181.117188 297.191406 180.402344 299.800781 181.421875 302.070312 C 181.3125 301.828125 181.207031 301.59375 181.136719 301.445312 C 181.195312 301.566406 181.28125 301.757812 181.421875 302.070312 C 181.632812 302.542969 181.734375 302.761719 181.761719 302.820312 C 181.726562 302.742188 181.574219 302.410156 181.421875 302.070312 C 182.621094 304.734375 185.765625 305.921875 188.417969 304.722656 C 191.085938 303.523438 192.273438 300.375 191.078125 297.714844 C 190.046875 295.441406 187.601562 294.246094 185.257812 294.695312 L 166.226562 252.414062 L 179.792969 234.964844 L 207.949219 234.976562 L 213.773438 252.753906 L 198.265625 272.699219 L 207.339844 293.695312 L 203.90625 297.957031 L 191.695312 273.515625 L 208.75 251.574219 L 203.449219 240.507812 L 182.804688 240.53125 L 173.761719 252.21875 L 176.4375 258.414062 C 174.839844 259.703125 174.21875 261.933594 175.066406 263.914062 C 176.082031 266.277344 178.839844 267.363281 181.207031 266.351562 C 183.578125 265.324219 184.667969 262.578125 183.648438 260.203125 C 182.796875 258.226562 180.746094 257.152344 178.714844 257.433594 L 176.625 252.582031 L 183.96875 243.085938 L 201.84375 242.90625 L 205.851562 251.269531 L 188.769531 273.226562 L 202.191406 300.082031 L 193.386719 310.972656 L 198.398438 328.296875 C 196.652344 329.367188 195.757812 331.507812 196.351562 333.570312 " fill-opacity="1" fill-rule="nonzero"/><path fill="#ffffff" d="M 268.042969 269.71875 C 268.992188 267.59375 271.488281 266.625 273.617188 267.570312 C 275.742188 268.511719 276.707031 271.015625 275.765625 273.140625 C 274.820312 275.269531 272.320312 276.234375 270.191406 275.285156 C 268.0625 274.34375 267.101562 271.84375 268.042969 269.71875 Z M 303.148438 290.558594 C 305.425781 291.984375 308.429688 291.289062 309.859375 289.015625 C 311.28125 286.730469 310.597656 283.734375 308.316406 282.304688 C 306.417969 281.117188 304.015625 281.398438 302.445312 282.839844 L 287.660156 273.585938 L 286.488281 250.257812 L 264.820312 240.242188 L 263.019531 214.125 L 243.332031 202.75 L 219.113281 224.410156 L 220.890625 250.21875 L 266.480469 270.449219 C 266.039062 272.902344 267.300781 275.421875 269.667969 276.476562 C 269.417969 276.359375 269.171875 276.257812 269.015625 276.1875 C 269.140625 276.242188 269.34375 276.335938 269.667969 276.476562 C 270.164062 276.695312 270.390625 276.792969 270.453125 276.820312 C 270.371094 276.789062 270.019531 276.636719 269.667969 276.476562 C 272.449219 277.710938 275.714844 276.449219 276.945312 273.667969 C 278.183594 270.886719 276.917969 267.617188 274.140625 266.382812 C 271.761719 265.332031 269.035156 266.105469 267.519531 268.082031 L 223.371094 248.480469 L 221.78125 225.492188 L 243.660156 205.933594 L 260.53125 215.6875 L 262.347656 241.957031 L 283.980469 251.953125 L 284.265625 257.652344 L 257.808594 247.15625 L 255.8125 218.261719 L 244.007812 213.351562 L 227.996094 227.726562 L 229.082031 243.089844 L 235.46875 246.039062 C 235.121094 248.148438 236.191406 250.316406 238.222656 251.265625 C 240.65625 252.390625 243.550781 251.324219 244.6875 248.886719 C 245.8125 246.441406 244.753906 243.546875 242.3125 242.417969 C 240.277344 241.472656 237.933594 242.0625 236.554688 243.691406 L 231.566406 241.382812 L 230.667969 228.902344 L 244.425781 216.335938 L 253.34375 220.042969 L 255.335938 248.96875 L 284.414062 260.496094 L 285.144531 275.070312 L 301.070312 285.039062 C 300.460938 287.085938 301.25 289.367188 303.148438 290.558594 " fill-opacity="1" fill-rule="nonzero"/><path fill="#ffffff" d="M 104.683594 92.570312 C 103.960938 94.777344 101.570312 95.992188 99.359375 95.265625 C 97.144531 94.539062 95.9375 92.148438 96.660156 89.9375 C 97.386719 87.722656 99.777344 86.519531 101.992188 87.246094 C 104.207031 87.96875 105.410156 90.359375 104.683594 92.570312 Z M 67.671875 75.347656 C 65.261719 74.160156 62.339844 75.148438 61.148438 77.558594 C 59.957031 79.972656 60.941406 82.886719 63.355469 84.082031 C 65.367188 85.074219 67.722656 84.546875 69.148438 82.957031 L 84.777344 90.6875 L 88.277344 113.777344 L 110.839844 121.574219 L 115.242188 147.378906 L 135.972656 156.730469 L 157.910156 132.753906 L 153.550781 107.246094 L 106.164062 91.683594 C 106.359375 89.203125 104.851562 86.820312 102.398438 86.007812 C 102.65625 86.097656 102.910156 86.175781 103.070312 86.230469 C 102.945312 86.191406 102.734375 86.117188 102.398438 86.007812 C 101.878906 85.835938 101.640625 85.761719 101.578125 85.742188 C 101.660156 85.769531 102.03125 85.882812 102.398438 86.007812 C 99.5 85.058594 96.378906 86.640625 95.433594 89.53125 C 94.480469 92.425781 96.066406 95.546875 98.953125 96.503906 C 101.429688 97.304688 104.066406 96.269531 105.371094 94.144531 L 151.261719 109.230469 L 155.140625 131.941406 L 135.332031 153.59375 L 117.570312 145.578125 L 113.128906 119.625 L 90.609375 111.839844 L 89.75 106.199219 L 117.125 113.992188 L 122 142.539062 L 134.238281 146.242188 L 148.742188 130.339844 L 146.113281 115.164062 L 139.46875 112.867188 C 139.601562 110.734375 138.324219 108.6875 136.203125 107.949219 C 133.667969 107.070312 130.894531 108.421875 130.011719 110.960938 C 129.128906 113.503906 130.476562 116.277344 133.023438 117.15625 C 135.136719 117.894531 137.414062 117.078125 138.621094 115.3125 L 143.816406 117.113281 L 145.957031 129.4375 L 133.519531 143.324219 L 124.28125 140.523438 L 119.40625 111.945312 L 89.320312 103.386719 L 87.132812 88.957031 L 70.292969 80.636719 C 70.695312 78.535156 69.679688 76.339844 67.671875 75.347656 " fill-opacity="1" fill-rule="nonzero"/><path fill="#ffffff" d="M 274.964844 88.921875 C 277.082031 88.207031 279.378906 89.347656 280.09375 91.46875 C 280.808594 93.582031 279.664062 95.886719 277.542969 96.601562 C 275.425781 97.308594 273.125 96.167969 272.414062 94.050781 C 271.699219 91.933594 272.839844 89.628906 274.964844 88.921875 Z M 305.332031 82.355469 L 289.230469 90.460938 L 287.230469 104.324219 L 258.425781 112.742188 L 253.945312 140.199219 L 245.089844 142.945312 L 233.066406 129.710938 L 235.035156 117.871094 L 240.007812 116.105469 C 241.183594 117.785156 243.371094 118.558594 245.394531 117.839844 C 247.828125 116.976562 249.101562 114.308594 248.242188 111.871094 C 247.371094 109.4375 244.707031 108.160156 242.277344 109.023438 C 240.246094 109.746094 239.035156 111.71875 239.175781 113.765625 L 232.820312 116.015625 L 230.402344 130.597656 L 244.421875 145.761719 L 256.140625 142.117188 L 260.628906 114.6875 L 286.839844 107.023438 L 286.054688 112.445312 L 264.496094 120.066406 L 260.417969 145 L 243.425781 152.816406 L 224.269531 132.175781 L 227.839844 110.355469 L 271.765625 95.570312 C 273.039062 97.589844 275.574219 98.570312 277.941406 97.78125 C 280.707031 96.847656 282.203125 93.835938 281.269531 91.066406 C 280.339844 88.304688 277.335938 86.808594 274.570312 87.738281 C 274.914062 87.617188 275.265625 87.5 275.347656 87.476562 C 275.285156 87.496094 275.0625 87.570312 274.570312 87.738281 C 274.246094 87.84375 274.042969 87.914062 273.917969 87.953125 C 274.078125 87.902344 274.320312 87.820312 274.570312 87.738281 C 272.210938 88.53125 270.785156 90.828125 270.980469 93.210938 L 225.621094 108.476562 L 221.621094 132.972656 L 242.832031 155.832031 L 262.664062 146.714844 L 266.710938 121.921875 L 288.300781 114.285156 L 291.503906 92.105469 L 306.449219 84.578125 C 307.824219 86.097656 310.09375 86.582031 312.011719 85.613281 C 314.320312 84.453125 315.25 81.648438 314.082031 79.34375 C 312.925781 77.042969 310.117188 76.109375 307.808594 77.265625 C 305.890625 78.234375 304.929688 80.347656 305.332031 82.355469 " fill-opacity="1" fill-rule="nonzero"/><path fill="#ffffff" d="M 189.949219 231.4375 C 219.558594 231.4375 243.640625 207.34375 243.640625 177.722656 C 243.640625 148.105469 219.558594 124.007812 189.949219 124.007812 C 160.339844 124.007812 136.25 148.105469 136.25 177.722656 C 136.25 207.34375 160.339844 231.4375 189.949219 231.4375 Z M 189.949219 119.695312 C 221.933594 119.695312 247.957031 145.726562 247.957031 177.722656 C 247.957031 209.722656 221.933594 235.753906 189.949219 235.753906 C 157.960938 235.753906 131.941406 209.722656 131.941406 177.722656 C 131.941406 145.726562 157.960938 119.695312 189.949219 119.695312 " fill-opacity="1" fill-rule="nonzero"/><g fill="#ffffff" fill-opacity="1"><g transform="translate(161.306244, 193.634459)"><g><path d="M 2.175781 -6.265625 C 2.175781 -2.175781 4.351562 0 8.4375 0 L 13.3125 0 C 17.398438 0 19.574219 -2.175781 19.574219 -6.265625 L 19.574219 -28.535156 C 19.574219 -32.625 17.398438 -34.800781 13.3125 -34.800781 L 8.4375 -34.800781 C 4.351562 -34.800781 2.175781 -32.625 2.175781 -28.535156 Z M 9.699219 -5.613281 C 8.570312 -5.613281 7.960938 -6.175781 7.960938 -7.351562 L 7.960938 -27.449219 C 7.960938 -28.578125 8.570312 -29.1875 9.699219 -29.1875 L 12.222656 -29.1875 C 13.355469 -29.1875 13.964844 -28.578125 13.964844 -27.449219 L 13.964844 -7.351562 C 13.964844 -6.175781 13.355469 -5.613281 12.222656 -5.613281 Z M 9.699219 -5.613281 "/></g></g></g><g fill="#ffffff" fill-opacity="1"><g transform="translate(183.056277, 193.634459)"><g><path d="M 2.175781 -0.871094 C 2.175781 -0.304688 2.480469 0 3.046875 0 L 7.003906 0 C 7.570312 0 7.875 -0.304688 7.875 -0.871094 L 7.875 -4.871094 C 7.875 -5.4375 7.570312 -5.742188 7.003906 -5.742188 L 3.046875 -5.742188 C 2.480469 -5.742188 2.175781 -5.4375 2.175781 -4.871094 Z M 2.175781 -0.871094 "/></g></g></g><g fill="#ffffff" fill-opacity="1"><g transform="translate(193.104796, 193.634459)"><g><path d="M 2.175781 -6.265625 C 2.175781 -2.175781 4.351562 0 8.4375 0 L 13.3125 0 C 17.398438 0 19.574219 -2.175781 19.574219 -6.265625 L 19.574219 -28.535156 C 19.574219 -32.625 17.398438 -34.800781 13.3125 -34.800781 L 8.4375 -34.800781 C 4.351562 -34.800781 2.175781 -32.625 2.175781 -28.535156 Z M 9.699219 -5.613281 C 8.570312 -5.613281 7.960938 -6.175781 7.960938 -7.351562 L 7.960938 -27.449219 C 7.960938 -28.578125 8.570312 -29.1875 9.699219 -29.1875 L 12.222656 -29.1875 C 13.355469 -29.1875 13.964844 -28.578125 13.964844 -27.449219 L 13.964844 -7.351562 C 13.964844 -6.175781 13.355469 -5.613281 12.222656 -5.613281 Z M 9.699219 -5.613281 "/></g></g></g><g fill="#ffffff" fill-opacity="1"><g transform="translate(214.854829, 193.634459)"><g><path d="M 2.175781 -0.871094 C 2.175781 -0.304688 2.480469 0 3.046875 0 L 7.003906 0 C 7.570312 0 7.875 -0.304688 7.875 -0.871094 L 7.875 -4.871094 C 7.875 -5.4375 7.570312 -5.742188 7.003906 -5.742188 L 3.046875 -5.742188 C 2.480469 -5.742188 2.175781 -5.4375 2.175781 -4.871094 Z M 2.175781 -0.871094 "/></g></g></g></svg>